# xmcd
#
# Track frame offsets: 
#        150
#        16735
#        31682
#        57382
#        69317
#        87050
#
# Disc length: 1350 seconds
#
# Revision: 0
# Processed by: cddbd v1.4PL0 Copyright (c) Steve Scherf et al.
# Submitted via: ExactAudioCopy v0.90b4
#
DISCID=3a054406
DTITLE=Music Hammer Band - Mississippi Kid
DYEAR=1996
DGENRE=Blues
TTITLE0=If You See That Woman
TTITLE1=Mississippi Kid
TTITLE2=I'm In Jail Again
TTITLE3=One Bourbon, One Scotch, One Beer
TTITLE4=Bluesman From LA
TTITLE5=Stormy Weather
EXTD=
EXTT0=
EXTT1=
EXTT2=
EXTT3=
EXTT4=
EXTT5=
PLAYORDER=
